<?xml version="1.0" standalone="no"?>
<!DOCTYPE svg PUBLIC "-//W3C//DTD SVG 20010904//EN"
 "http://www.w3.org/TR/2001/REC-SVG-20010904/DTD/svg10.dtd">
<svg version="1.0" xmlns="http://www.w3.org/2000/svg"
 width="400.000000pt" height="400.000000pt" viewBox="0 0 400.000000 400.000000"
 preserveAspectRatio="xMidYMid meet">
<metadata>
Created by potrace 1.11, written by Peter Selinger 2001-2013
</metadata>
<g transform="translate(0.000000,400.000000) scale(0.100000,-0.100000)"
fill="#000000" stroke="none">
<path d="M1858 3985 c-1 -1 -38 -6 -82 -9 -43 -3 -81 -8 -85 -11 -4 -2 -30 -7
-57 -11 -27 -3 -52 -8 -55 -10 -3 -2 -21 -6 -40 -9 -31 -6 -68 -16 -174 -50
-357 -115 -713 -372 -954 -690 -17 -22 -34 -44 -39 -50 -40 -51 -198 -335
-187 -335 3 0 -1 -10 -9 -22 -27 -44 -103 -275 -121 -370 -34 -175 -40 -234
-39 -423 0 -147 6 -240 19 -305 20 -102 27 -138 30 -157 8 -57 89 -281 141
-389 102 -214 218 -377 390 -549 106 -106 150 -145 164 -145 5 0 10 -4 10 -10
0 -17 239 -168 355 -225 126 -61 312 -129 410 -149 17 -4 41 -9 55 -12 61 -12
140 -25 195 -32 119 -13 497 -4 525 13 3 2 29 7 56 11 27 3 52 8 55 10 3 2 21
6 40 9 146 26 458 158 614 261 72 47 60 38 165 121 408 323 680 815 737 1333
15 130 8 430 -12 530 -2 14 -7 36 -10 50 -2 14 -7 36 -9 50 -4 23 -11 51 -34
140 -49 187 -190 472 -314 635 -269 354 -620 597 -1053 728 -47 14 -76 21
-135 32 -14 3 -36 7 -50 11 -14 3 -41 7 -60 10 -19 2 -51 7 -70 10 -36 7 -366
15 -372 9z"/>
</g>
</svg>
